<svg class="svg-icon" style="width: 1em; height: 1em;vertical-align: middle;fill: currentColor;overflow: hidden;" viewBox="0 0 1024 1024" version="1.1" xmlns="http://www.w3.org/2000/svg"><path d="M581.973333 937.386667a42.24 42.24 0 0 1-56.746666-20.053334l-93.013334-202.24-107.093333 86.186667c-7.253333 5.973333-16.213333 9.386667-26.453333 9.386667a42.666667 42.666667 0 0 1-42.666667-42.666667V128a42.666667 42.666667 0 0 1 42.666667-42.666667c10.24 0 20.053333 3.84 27.306666 9.813334l0.426667-0.426667 490.24 411.306667a42.709333 42.709333 0 0 1-18.773333 74.666666l-134.826667 26.453334 93.866667 201.813333c11.093333 21.333333 0.853333 46.506667-20.48 56.32l-154.453334 72.106667z" fill="" /></svg>